<svg width="136" height="95" viewBox="0 0 136 95" fill="none" xmlns="http://www.w3.org/2000/svg">
<path fill-rule="evenodd" clip-rule="evenodd" d="M47.9923 64.0776C48.1339 64.0877 48.147 64.1673 48.1509 64.3227C48.1548 64.4781 48.1498 64.7096 48.1187 64.9272C48.0876 65.1449 48.0302 65.3491 48.008 65.489C47.986 65.6287 47.999 65.7043 48.0497 65.7774C48.1006 65.8506 48.1891 65.9212 48.3428 65.9332C48.4965 65.9453 48.7152 65.8985 49.0694 65.5372C49.4238 65.1757 49.9136 64.4997 50.1051 64.0448C50.2967 63.5897 50.1901 63.3558 50.0562 63.1761C49.9223 62.9964 49.7611 62.8709 49.5186 62.7622C49.276 62.6537 48.9518 62.5621 48.6223 62.5224C48.293 62.4829 47.9581 62.495 47.5489 62.602C47.1395 62.7089 46.6556 62.9103 46.1962 63.1635C45.737 63.4164 45.3021 63.7211 44.93 64.0886C44.5579 64.4562 44.2484 64.8868 43.9629 65.3329C43.6776 65.7792 43.4163 66.2411 43.1901 66.7074C42.9638 67.1737 42.7727 67.6445 42.5853 68.2188C42.398 68.793 42.2147 69.4707 42.0791 70.0727C41.9435 70.6747 41.8558 71.201 41.8234 71.6902C41.791 72.1794 41.8138 72.6314 41.8722 72.9485C41.9306 73.2656 42.0247 73.4478 42.1465 73.6158C42.2682 73.7837 42.4177 73.9373 42.5747 74.057C42.7318 74.1765 42.8963 74.2622 43.1146 74.3372C43.3328 74.4121 43.6047 74.4763 43.8741 74.5009C44.1436 74.5253 44.4106 74.5099 44.6695 74.4827C44.9284 74.4555 45.1791 74.4165 45.5641 74.28C45.9491 74.1435 46.4684 73.9097 46.9714 73.6302C47.4741 73.3506 47.9604 73.0255 48.4463 72.6624C48.9321 72.2994 49.4175 71.8985 49.7839 71.5609C50.1505 71.2233 50.3983 70.9489 50.5242 70.8218C50.6503 70.6946 50.6544 70.7144 50.6572 70.7783C50.6601 70.842 50.6614 70.9496 50.6955 71.1207C50.7296 71.2916 50.7964 71.526 50.8925 71.7282C50.9889 71.9303 51.1147 72.1002 51.2775 72.2138C51.4405 72.3273 51.6406 72.3845 51.8324 72.414C52.0241 72.4435 52.2077 72.4451 52.5888 72.3936C52.9702 72.3421 53.5495 72.2375 53.9837 72.0586C54.4181 71.8795 54.7076 71.6263 54.9784 71.3825C55.2493 71.1386 55.5015 70.904 55.8535 70.5189C56.2054 70.1335 56.6572 69.5974 56.9926 69.1646C57.328 68.7317 57.5471 68.4019 57.6667 68.2388C57.7861 68.0759 57.8061 68.0797 57.8039 68.2232C57.8019 68.3668 57.7775 68.6502 57.7781 68.8575C57.7788 69.0649 57.8044 69.196 57.8599 69.3251C57.9154 69.4538 58.0006 69.5805 58.1295 69.6804C58.2584 69.7804 58.4309 69.854 58.6127 69.8876C58.7946 69.9211 58.9857 69.9148 59.2365 69.8777C59.4872 69.8405 59.7974 69.7728 60.0693 69.6737C60.3411 69.5745 60.5749 69.444 60.8217 69.2693C61.0688 69.0947 61.3292 68.8761 61.5609 68.6614C61.7928 68.4467 61.9959 68.2359 62.5121 67.403C63.0282 66.5699 63.8572 65.1146 64.1238 64.945C64.3905 64.7753 64.095 65.8911 63.9514 66.5847C63.8077 67.2782 63.8161 67.5494 63.8689 67.7396C63.9215 67.9299 64.0183 68.0388 64.3548 68.016C64.6915 67.993 65.2677 67.8382 65.5949 67.7025C65.9222 67.5667 66.0005 67.45 66.1828 67.057C66.3652 66.6639 66.6518 65.9944 66.9663 65.1251C67.2808 64.2557 67.6234 63.1863 67.8993 62.2695C68.1754 61.3527 68.385 60.5886 68.5056 60.1904C68.6261 59.7921 68.6576 59.7597 68.7032 59.7512C68.749 59.7425 68.8091 59.7579 68.8474 59.7851C68.8855 59.8125 68.902 59.8524 68.8648 60.2237C68.8276 60.5949 68.737 61.2977 68.653 62.0821C68.5692 62.8664 68.492 63.7321 68.441 64.3488C68.3903 64.9653 68.3658 65.3329 68.3681 65.5584C68.3702 65.7838 68.3993 65.867 68.4419 65.9361C68.4847 66.0054 68.5413 66.0605 68.6175 66.0955C68.6936 66.1304 68.7896 66.1451 69.1018 66.0854C69.414 66.0256 69.9426 65.8914 70.2463 65.7879C70.5501 65.6843 70.629 65.6114 70.8007 65.2585C70.9727 64.9055 71.2373 64.2722 71.6126 63.2488C71.9879 62.2253 72.4737 60.8115 72.8958 59.6148C73.3179 58.4181 73.6765 57.4382 73.8696 56.9462C74.0627 56.4541 74.0907 56.4498 74.1324 56.4413C74.1742 56.4327 74.2299 56.4201 74.2764 56.4813C74.3232 56.5424 74.3608 56.6775 74.361 57.0695C74.3611 57.4615 74.3242 58.1104 74.2432 59.0137C74.1621 59.917 74.0372 61.0749 73.8909 62.265C73.7446 63.455 73.5766 64.6773 73.4444 65.5681C73.3123 66.459 73.2157 67.0183 73.0824 67.8215C72.9491 68.6246 72.7789 69.6715 72.7081 70.2207C72.6375 70.7699 72.666 70.8213 72.771 70.9296C72.8761 71.0379 73.0575 71.2031 73.2676 71.2643C73.4779 71.3253 73.7166 71.2824 73.8975 71.2483C74.0785 71.214 74.2018 71.1885 74.2657 71.1897C74.3295 71.1908 74.3338 71.2188 74.3075 71.3526C74.2814 71.4865 74.2245 71.7266 73.9373 72.9683C73.6501 74.21 73.1325 76.4535 72.6443 78.6707C72.1562 80.8879 71.6975 83.0787 71.3948 84.6775C71.0922 86.2764 70.9455 87.283 70.9049 87.8457C70.8641 88.4084 70.9295 88.5273 71.0181 88.598C71.1067 88.6685 71.2186 88.6911 71.4734 88.5974C71.7283 88.5037 72.126 88.294 72.3828 88.1308C72.6397 87.9673 72.7557 87.8503 72.9191 87.2888C73.0827 86.7271 73.2937 85.7208 73.6454 84.2058C73.9973 82.6907 74.4899 80.6668 74.9378 78.8908C75.3857 77.1147 75.789 75.5864 76.4009 73.5412C77.0128 71.4959 77.8336 68.9336 78.2677 67.6441C78.702 66.3546 78.7496 66.3381 79.1552 66.2571C79.5609 66.1762 80.3246 66.0309 81.1316 65.8413C81.9386 65.6516 82.7889 65.4175 83.6814 65.0552C84.574 64.693 85.5087 64.2027 86.4607 63.4927C87.4127 62.7828 88.3816 61.8535 88.9822 61.239C89.5826 60.6244 89.8144 60.3247 89.9393 60.1749C90.0642 60.025 90.0822 60.025 89.9844 60.6651C89.8868 61.3052 89.6734 62.5852 89.4369 64.0013C89.2003 65.4173 88.9407 66.9693 88.801 67.9259C88.6616 68.8825 88.6421 69.2436 88.8457 69.3584C89.0495 69.4731 89.4766 69.3415 89.7822 69.2304C90.0879 69.1192 90.2721 69.0284 90.5726 68.2795C90.873 67.5306 91.2897 66.1235 91.9716 64.5497C92.6536 62.9756 93.6007 61.2349 94.3327 59.9905C95.0649 58.7461 95.5815 57.9978 96.0909 57.2976C96.6005 56.5974 97.1026 55.945 97.5231 55.4651C97.9436 54.9853 98.2827 54.6779 98.6219 54.3946C98.9612 54.1112 99.3008 53.8516 99.6339 53.6479C99.9669 53.4441 100.293 53.2962 100.5 53.2378C100.706 53.1794 100.793 53.2104 100.841 53.2618C100.889 53.313 100.898 53.3847 100.901 53.6119C100.904 53.8393 100.901 54.222 100.806 54.6579C100.712 55.0936 100.527 55.5826 100.247 56.1085C99.9663 56.6344 99.5907 57.1972 99.0842 57.8257C98.5778 58.4543 97.9408 59.148 97.2278 59.843C96.515 60.538 95.7264 61.2338 95.0226 61.8073C94.3185 62.3806 93.6991 62.8315 93.3487 63.0847C92.9982 63.3378 92.9163 63.3932 92.8525 63.4588C92.7886 63.5244 92.7427 63.6005 92.6649 63.7774C92.5873 63.9544 92.4779 64.2323 92.4471 64.375C92.4164 64.5175 92.4643 64.5248 92.9445 64.4251C93.4248 64.3253 94.3375 64.1182 95.3559 63.7006C96.3745 63.2829 97.4989 62.6546 98.4997 62.02C99.5003 61.3851 100.377 60.7439 101.175 60.1237C101.972 59.5035 102.69 58.9043 103.455 58.267C104.22 57.6297 105.031 56.9544 105.544 56.5237C106.056 56.0929 106.269 55.9067 106.368 55.8417C106.467 55.7766 106.451 55.8326 106.378 56.061C106.306 56.2891 106.175 56.6893 106.133 57.1365C106.091 57.5836 106.137 58.0776 106.233 58.4231C106.329 58.7689 106.475 58.9664 106.653 59.1241C106.83 59.2814 107.039 59.399 107.497 59.406C107.954 59.413 108.66 59.3093 109.363 59.0967C110.066 58.8841 110.766 58.5625 111.306 58.2917C111.846 58.0207 112.226 57.8006 112.739 57.3795C113.252 56.9583 113.898 56.3361 114.233 56.0208C114.568 55.7055 114.592 55.6973 114.589 56.0595C114.574 58.3217 113.744 64.6624 117.939 62.8622C119.355 62.2549 120.381 60.7395 121.299 59.5736C121.915 58.7908 122.402 57.9033 122.709 57.4546C123.015 57.0058 123.033 56.9956 123.034 57.2047C123.036 57.4138 123.021 57.8426 123.052 58.6061C123.083 59.3697 123.161 60.4682 123.319 61.1632C123.477 61.8582 123.717 62.1498 123.965 62.3497C124.213 62.5497 124.469 62.6581 124.9 62.6728C125.33 62.6876 125.934 62.6087 126.511 62.2796C127.089 61.9506 127.639 61.371 128.28 60.5703C130.079 58.3221 132.145 54.8451 133.372 52.2435C133.943 51.0328 134.093 50.7465 134.066 50.5898C134.04 50.433 133.835 50.4059 133.727 50.3964C133.618 50.387 133.495 50.3952 133.352 50.4228C133.21 50.4505 132.939 50.4974 132.748 50.5713C132.558 50.6451 132.339 50.7457 132.158 50.9099C131.977 51.074 131.834 51.302 131.508 51.8626C130.198 54.1165 127.853 58.1459 126.17 60.0201C125.851 60.3756 125.684 60.4334 125.539 60.3476C125.395 60.2616 125.272 60.032 125.193 59.6815C125.114 59.3311 125.078 58.8601 125.079 57.9583C125.08 57.0565 125.119 55.7243 125.303 53.8479C125.486 51.9716 125.814 49.551 126.135 47.4498C126.456 45.3484 126.77 43.5663 127.122 41.6721C127.475 39.7778 127.864 37.7713 128.316 35.5477C128.767 33.3242 129.28 30.8836 130.516 25.5672C131.751 20.2509 133.71 11.2999 134.745 6.75878C135.781 2.21762 135.893 1.32709 135.952 0.806494C136.01 0.285898 136.015 0.134982 135.97 0.0609428C135.926 -0.0133028 135.832 -0.0105166 135.701 0.0207501C135.571 0.0519652 135.403 0.111919 135.113 0.228988C134.824 0.346161 134.412 0.520501 134.219 0.637158C134.025 0.753609 134.049 0.812479 132.618 7.15879C131.187 13.5052 128.301 26.898 126.505 34.9491C124.71 43.0001 124.006 46.4682 123.425 49.0737C122.843 51.679 122.385 53.4218 121.799 54.8548C121.213 56.2878 120.499 57.4109 119.897 58.306C119.294 59.201 118.803 59.8679 118.414 60.3297C115.363 63.953 116.924 54.2248 117.021 53.2233C117.228 51.088 117.606 48.5105 118.026 45.9029C118.445 43.2954 118.906 40.658 119.484 37.5445C120.063 34.431 120.759 30.8415 121.442 27.5433C122.125 24.245 122.796 21.9968 123.725 17.7785C124.653 13.5601 125.731 8.7809 126.279 6.0269C126.827 3.273 126.737 3.19458 126.636 3.17043C126.535 3.14623 126.423 3.17621 126.097 3.29416C125.772 3.4121 125.232 3.61838 124.979 3.74123C124.725 3.86403 124.757 3.90339 124.535 4.94051C124.313 5.97752 123.944 7.36177 123.174 10.7824C122.404 14.2029 121.34 18.6838 120.493 22.5703C119.645 26.4568 119.013 28.9896 118.443 31.8119C117.873 34.6342 117.364 37.3123 116.965 39.4666C116.566 41.6207 116.275 43.2514 115.949 45.2891C115.623 47.3269 115.261 49.772 114.776 51.4169C114.29 53.0618 113.681 53.9067 113.081 54.6159C112.482 55.3252 111.891 55.8989 111.326 56.3686C110.762 56.8383 110.225 57.204 109.761 57.4571C109.298 57.7103 108.909 57.8507 108.687 57.9174C108.464 57.984 108.408 57.9768 108.383 57.8337C108.357 57.6904 108.361 57.4113 108.442 56.8317C108.524 56.2521 108.682 55.3721 108.797 54.9244C108.912 54.4765 108.984 54.461 109.331 54.2337C109.678 54.0063 110.3 53.5674 110.91 53.1448C111.52 52.7221 112.118 52.3161 112.555 51.9231C112.992 51.5301 113.269 51.1503 113.437 50.8452C113.604 50.5403 113.662 50.31 113.641 50.0493C113.62 49.7886 113.521 49.4976 113.311 49.2599C113.102 49.0222 112.783 48.8379 112.406 48.7619C112.028 48.6859 111.592 48.718 111.252 48.7838C110.911 48.8497 110.665 48.949 110.429 49.0708C110.193 49.1926 109.966 49.3366 109.686 49.6055C109.406 49.8744 109.071 50.2683 108.67 50.836C108.268 51.4037 107.799 52.1452 107.518 52.5486C107.236 52.9518 107.141 53.0167 106.179 53.8002C105.216 54.5835 103.387 56.0852 102.48 56.8201C101.573 57.5548 101.588 57.5227 101.717 57.3297C101.847 57.1366 102.089 56.7828 102.338 56.2892C102.587 55.7955 102.842 55.1622 102.996 54.7017C103.149 54.2412 103.202 53.9535 103.195 53.6945C103.188 53.4354 103.123 53.205 103.036 52.9748C102.949 52.7446 102.842 52.5147 102.699 52.3491C102.557 52.1834 102.381 52.0819 102.164 52.0129C101.948 51.944 101.693 51.9072 101.409 51.9108C101.126 51.9144 100.816 51.9583 100.49 52.0303C100.164 52.1022 99.8221 52.2023 99.4097 52.3789C98.9973 52.5556 98.514 52.809 98.0747 53.0658C97.6353 53.3226 97.24 53.5828 96.8135 53.9112C96.387 54.2395 95.9297 54.6361 95.5201 55.0441C95.1106 55.4519 94.7491 55.8712 94.3369 56.3828C93.9248 56.8945 93.462 57.4985 93.1642 57.913C92.8664 58.3274 92.7338 58.5524 92.6518 58.697C92.5698 58.8416 92.5386 58.9059 92.5113 58.934C92.4839 58.9621 95.6577 37.0605 97.1629 31.4985C97.9471 28.6009 104.99 16.3771 104.151 11.6569C104.1 11.3656 104.035 11.17 103.881 11.0227C103.727 10.8753 103.484 10.7758 103.18 10.7683C102.876 10.7606 102.51 10.8451 102.113 11.0621C101.715 11.2791 101.287 11.6286 100.896 12.053C98.3027 14.8701 95.9304 27.4521 94.6217 32.1672C94.0907 34.0801 89.83 43.4253 89.8313 43.5292C89.8325 43.6289 89.8425 43.7803 89.9033 43.8634C89.9642 43.9462 90.076 43.9607 90.267 43.9305C90.458 43.9001 90.7282 43.8249 91.0336 43.7014C91.3392 43.5778 91.6799 43.4061 92.0009 42.9355C92.3218 42.4648 92.6232 41.6954 92.8094 41.3023C92.9714 40.9607 93.0858 40.7269 93.1636 40.5811C93.457 40.0317 93.2326 40.732 93.0887 41.6258C93.0038 42.1533 92.8162 43.0966 92.3789 45.7019C91.9416 48.3072 91.2541 52.5743 90.8947 54.736C90.5356 56.8977 90.5045 56.954 90.0719 57.4299C89.6394 57.9059 88.8054 58.8017 88.1841 59.4874C87.5628 60.1731 87.1543 60.649 86.8604 60.9796C86.5667 61.3102 86.3876 61.4956 86.2725 61.5965C86.1575 61.6972 86.1063 61.7133 86.0924 61.7002C86.0785 61.687 86.1019 61.6445 86.1917 61.5195C86.2817 61.3945 86.4383 61.1868 86.654 60.8095C86.8696 60.4322 87.1445 59.8852 87.3499 59.3369C87.5551 58.7887 87.6906 58.2393 87.7547 57.7192C87.8189 57.199 87.8114 56.7082 87.6785 56.2912C87.5455 55.8743 87.2873 55.5311 86.9661 55.3141C86.645 55.0971 86.2611 55.0063 85.9017 54.9631C85.5424 54.9197 85.2075 54.9241 84.8217 55.0127C84.4361 55.1013 83.9996 55.2743 83.513 55.5677C83.0262 55.8608 82.4892 56.2744 81.9341 56.8357C81.3791 57.3969 80.806 58.106 80.3552 58.7138C79.9043 59.3216 79.5758 59.8282 79.3997 60.0897C79.2236 60.351 79.1999 60.3673 79.2494 60.1834C79.299 59.9992 79.4217 59.6149 79.6235 58.8667C79.8253 58.1185 80.1062 57.0064 80.284 56.2506C80.4618 55.4948 80.5364 55.0951 80.557 54.8396C80.5778 54.5841 80.5444 54.4729 80.4078 54.3989C80.2713 54.3249 80.0317 54.2881 79.8245 54.2987C79.6174 54.3092 79.4426 54.3673 79.2684 54.4612C79.0941 54.5551 78.9203 54.685 78.6937 55.0587C78.4672 55.4324 78.1881 56.0499 77.8045 57.2431C77.421 58.4361 76.9331 60.2047 76.4176 62.3127C75.9021 64.4205 75.3592 66.8676 75.0873 68.0633C74.8153 69.2589 74.8146 69.2032 74.9061 68.564C74.9977 67.9249 75.1816 66.7024 75.3936 65.1966C75.6057 63.6906 75.8462 61.9012 75.9857 60.6396C76.1251 59.3777 76.1636 58.6436 76.1417 57.8583C76.1198 57.0731 76.0373 56.2368 75.9503 55.6678C75.8633 55.0987 75.7718 54.7968 75.6293 54.5714C75.4869 54.3459 75.2937 54.1967 74.9418 54.1631C74.5899 54.1295 74.0796 54.2112 73.7181 54.304C73.3565 54.3969 73.1435 54.5007 72.9167 54.8406C72.6899 55.1802 72.4493 55.7559 72.197 56.3612C71.9447 56.9663 71.6809 57.6014 71.4514 58.1925C71.222 58.7833 71.0269 59.3302 70.9074 59.6017C70.7879 59.8733 70.744 59.8694 70.7004 59.5653C70.6568 59.2614 70.6134 58.6572 70.5113 58.2367C70.4093 57.8163 70.2484 57.5792 70.0041 57.4931C69.7599 57.4068 69.4325 57.4711 69.0761 57.5791C68.7197 57.6871 68.3345 57.8387 68.0735 58.0053C67.8126 58.1719 67.6759 58.3531 67.5154 58.6319C67.3551 58.9109 67.1713 59.287 66.8794 60.1003C66.5876 60.9137 66.188 62.1644 65.9529 62.7702C65.7178 63.3759 65.6476 63.3369 65.6143 63.2417C65.5811 63.1465 65.5851 62.9948 65.5751 62.6965C65.5649 62.398 65.5407 61.9527 65.4602 61.7075C65.3799 61.4625 65.2432 61.4178 65.0942 61.3872C64.9453 61.3567 64.7842 61.3405 64.5756 61.384C64.367 61.4274 64.111 61.5303 63.7415 62.0071C63.372 62.4839 62.8891 63.3347 62.3308 64.2465C61.7726 65.1584 61.1389 66.1314 60.7597 66.7304C60.3806 67.3293 60.2559 67.5541 60.1614 67.655C60.0671 67.7558 60.003 67.7327 60.0053 67.3399C60.0075 66.947 60.0764 66.1842 60.2956 65.1337C60.5149 64.083 60.8847 62.7445 61.0739 62.0245C61.263 61.3045 61.2716 61.2029 61.1764 61.0915C61.0811 60.9798 60.882 60.8581 60.6727 60.788C60.4636 60.7177 60.2445 60.6992 60.031 60.8083C59.8177 60.9174 59.61 61.1544 59.3658 61.5464C59.1215 61.9382 58.8407 62.4852 58.6477 62.8231C58.4546 63.1609 58.3494 63.2895 58.2287 63.2762C58.1081 63.263 57.9724 63.108 57.5764 63.0364C57.1805 62.9648 56.5242 62.9768 56.0436 63.0286C55.5633 63.0806 55.2584 63.1724 54.986 63.2878C54.7136 63.4031 54.4738 63.5421 54.1147 63.8356C53.7558 64.1291 53.2776 64.5772 52.6697 65.2845C52.062 65.9915 51.3248 66.958 50.6183 67.8442C49.9117 68.7304 49.2363 69.5363 48.6028 70.2103C47.9694 70.8842 47.3784 71.426 46.8613 71.8473C46.3443 72.2686 45.9015 72.5693 45.4932 72.7539C45.0849 72.9385 44.711 73.007 44.4547 72.9227C44.1984 72.8381 44.0598 72.6007 44.0223 72.1707C43.985 71.7407 44.0487 71.1184 44.2141 70.3307C44.3795 69.5432 44.6467 68.5904 44.9509 67.741C45.2552 66.8916 45.5966 66.1457 45.9959 65.5704C46.3954 64.9951 46.8526 64.5905 47.2165 64.3585C47.5804 64.1266 47.8507 64.0675 47.9923 64.0776ZM101.284 17.4008C103.294 11.4079 101.224 14.5069 100.326 17.3123C97.5843 25.8839 99.6486 22.277 101.284 17.4008ZM56.037 64.6336C56.3491 64.608 56.9455 64.5891 57.2715 64.5635C57.5974 64.5377 57.6529 64.5052 57.5337 64.7021C57.4147 64.8989 57.121 65.3253 56.6007 66.1252C56.0805 66.9251 55.3336 68.0983 54.7463 68.9314C54.1591 69.7642 53.7314 70.2566 53.438 70.5212C53.1445 70.7857 52.9851 70.8222 52.8793 70.7411C52.7736 70.66 52.7215 70.4611 52.7551 70.1533C52.7889 69.8454 52.9081 69.4286 53.1258 68.93C53.3435 68.4315 53.6598 67.8515 54.0196 67.2496C54.3794 66.6475 54.7831 66.0239 55.0655 65.5993C55.3479 65.1746 55.509 64.9491 55.6034 64.8202C55.6976 64.6913 55.7251 64.659 56.037 64.6336ZM79.6501 64.0709C79.8944 63.5108 80.4222 62.3717 81.042 61.2514C81.6617 60.131 82.3733 59.0294 82.9381 58.2746C83.5031 57.5198 83.9211 57.1117 84.2449 56.8826C84.5686 56.6534 84.7983 56.6034 85.0092 56.5908C85.2201 56.5782 85.4122 56.6029 85.5451 56.6867C85.6779 56.7704 85.7517 56.9131 85.7272 57.2919C85.7027 57.6704 85.5803 58.2853 85.2704 59.0666C84.9605 59.8479 84.4633 60.7954 84.0538 61.4111C83.6444 62.0268 83.3226 62.3105 82.8532 62.6516C82.3839 62.9926 81.767 63.3914 81.1808 63.7246C80.5948 64.0575 80.0398 64.3253 79.7424 64.4686C79.4451 64.6119 79.406 64.631 79.6501 64.0709ZM109.823 51.9942C109.923 51.9679 110.099 51.8814 110.272 51.7981C110.445 51.7148 110.614 51.6343 110.913 51.3948C111.212 51.1552 111.64 50.7568 111.749 50.4658C111.857 50.1746 111.646 49.9913 111.396 50.0231C111.146 50.0549 110.857 50.302 110.618 50.5498C110.379 50.7976 110.188 51.0463 110.04 51.2802C109.892 51.5142 109.785 51.7337 109.743 51.8602C109.701 51.9867 109.724 52.0204 109.823 51.9942Z" fill="black"/>
<path fill-rule="evenodd" clip-rule="evenodd" d="M1.73801 44.9336C1.58983 44.964 1.40636 45.0011 1.17547 45.0523C0.944686 45.1035 0.666278 45.1688 0.453757 45.2468C0.24134 45.3247 0.0947575 45.4153 0.0340815 45.6221C-0.0264397 45.8288 -0.000848452 46.1517 0.0676184 47.1894C0.136085 48.2272 0.247479 49.98 0.41764 51.8582C0.58775 53.7366 0.816575 55.7405 1.06155 57.7648C1.30652 59.7891 1.5677 61.8338 1.93624 64.2608C2.30479 66.6877 2.78065 69.4969 3.18603 71.3006C3.59147 73.1041 3.92637 73.9022 4.14684 74.3839C4.36741 74.8655 4.47354 75.0308 4.68823 75.1531C4.90297 75.2754 5.22606 75.3546 5.68913 75.3273C6.15219 75.2999 6.75508 75.166 7.19648 74.999C7.63793 74.8318 7.91783 74.6315 8.22936 74.3034C8.54095 73.9753 8.88411 73.5193 9.24543 72.7981C9.6068 72.077 9.98634 71.0905 10.4631 69.5841C10.9398 68.0777 11.5139 66.0512 12.1575 63.4665C12.8011 60.8818 13.5142 57.7388 14.129 54.8628C14.744 51.9869 15.2605 49.3782 15.5254 47.9448C15.7904 46.5115 15.8039 46.2537 15.8106 46.1248C15.8173 45.9958 15.8173 45.9958 15.9775 46.0971C16.1376 46.1985 16.458 46.4012 16.9874 46.5082C17.517 46.6152 18.2558 46.6264 19.0754 46.5359C19.895 46.4453 20.7957 46.2528 21.6245 45.8832C22.4533 45.5134 23.2105 44.9664 23.5748 44.6236C23.9391 44.2808 23.9107 44.1423 23.7624 44.0972C23.6142 44.0521 23.3462 44.1002 23.102 44.147C22.8577 44.1937 22.6373 44.2389 22.211 44.5066C21.7847 44.7741 21.1524 45.2643 20.614 45.5213C20.0756 45.7784 19.6311 45.8023 18.9947 45.6348C18.3582 45.4673 17.53 45.1085 17.0332 44.1707C16.5364 43.2328 16.3711 41.7161 16.2213 40.9454C16.0715 40.1747 15.9372 40.1501 15.5524 40.314C15.1677 40.4778 14.5324 40.8302 14.0967 41.2608C13.6611 41.6914 13.4251 42.2003 13.4237 42.8318C13.4224 43.4633 13.6557 44.2172 13.7682 44.6428C13.8807 45.0683 13.8724 45.1654 13.6882 46.1272C13.5041 47.0889 13.144 48.9155 12.4234 52.2747C11.7029 55.6337 10.6219 60.5253 9.86808 63.7056C9.11433 66.8858 8.68784 68.3547 8.23705 69.5997C7.78637 70.8447 7.31123 71.8658 6.92741 72.4421C6.54354 73.0183 6.25069 73.1496 6.05803 73.221C5.86543 73.2924 5.77286 73.3037 5.55364 72.5087C5.33446 71.7135 4.98856 70.112 4.65134 68.1724C4.31427 66.2327 3.98597 63.9552 3.67521 61.3739C3.3646 58.7927 3.07165 55.9079 2.83818 53.2533C2.60471 50.5986 2.43068 48.1742 2.31954 46.8131C2.20846 45.4519 2.16042 45.154 2.07978 45.0168C1.99919 44.8797 1.88625 44.9032 1.73801 44.9336Z" fill="black"/>
<path fill-rule="evenodd" clip-rule="evenodd" d="M27.1124 35.6663C26.8021 35.7162 26.2061 35.8617 25.594 36.2076C24.9821 36.5535 24.3541 37.0997 23.977 37.4547C23.5999 37.8095 23.4736 37.9732 23.4423 38.1248C23.4111 38.2764 23.4749 38.4159 23.6223 38.4777C23.7699 38.5395 24.0012 38.5236 24.4191 38.402C24.8371 38.2802 25.4418 38.0527 26.0252 37.8085C26.6087 37.5641 27.1709 37.303 27.4533 37.1494C27.7357 36.9958 27.7384 36.9497 27.6949 36.7274C27.6515 36.505 27.5617 36.1064 27.5045 35.8842C27.4473 35.662 27.4227 35.6163 27.1124 35.6663Z" fill="black"/>
<path fill-rule="evenodd" clip-rule="evenodd" d="M21.6564 48.9241C21.7083 48.7087 21.9236 48.4694 22.1867 48.318C22.4498 48.1664 22.7609 48.1026 23.02 48.0987C23.2792 48.0947 23.4865 48.1505 23.6619 48.31C23.8374 48.4694 23.9809 48.7326 23.965 49.4782C23.949 50.2237 23.7736 51.4518 23.5941 52.6678C23.4148 53.8838 23.2313 55.0878 23.1675 55.8453C23.1037 56.6029 23.1596 56.9139 23.2154 57.0534C23.2712 57.193 23.327 57.1611 23.8891 56.6787C24.4514 56.1962 25.5199 55.2632 26.4927 54.3064C27.4655 53.3495 28.3427 52.3687 28.825 51.8385C29.3075 51.3081 29.3952 51.2285 29.4709 51.085C29.5468 50.9414 29.6105 50.7341 29.7739 50.4032C29.9374 50.0723 30.2007 49.6176 30.5195 49.207C30.8385 48.7964 31.2133 48.4296 31.5641 48.1386C31.915 47.8475 32.2419 47.6322 32.5927 47.4488C32.9435 47.2654 33.3184 47.1139 33.7489 47.0341C34.1795 46.9544 34.666 46.9464 35.0527 46.9942C35.4395 47.0421 35.7266 47.1458 35.9697 47.3172C36.213 47.4886 36.4124 47.7279 36.516 48.0389C36.6196 48.3499 36.6276 48.7325 36.5917 49.0436C36.5558 49.3546 36.4761 49.5938 36.4004 49.7613C36.3246 49.9287 36.2528 50.0244 36.1021 50.0958C35.9515 50.1672 35.722 50.2142 35.4668 50.262C35.2117 50.3098 34.9309 50.3584 34.7346 50.3469C34.5384 50.3353 34.4268 50.2635 34.367 50.1718C34.3072 50.0802 34.2992 49.9685 34.3248 49.7713C34.3504 49.5739 34.4097 49.2908 34.4255 49.0437C34.4414 48.7966 34.4142 48.5851 34.3611 48.4736C34.3079 48.3619 34.2288 48.3502 34.0149 48.4241C33.801 48.4979 33.4523 48.6574 33.1264 48.8747C32.8006 49.092 32.4976 49.3672 32.1408 49.9134C31.7839 50.4597 31.3733 51.2771 31.0443 52.1124C30.7153 52.9477 30.4681 53.8009 30.2846 54.6156C30.1013 55.4303 29.9817 56.2064 30.062 56.6522C30.1423 57.0979 30.4226 57.2132 30.7541 57.2191C31.0856 57.2249 31.4683 57.1212 31.8711 56.9445C32.2738 56.7678 32.6964 56.5179 33.2346 56.066C33.773 55.6141 34.4268 54.9603 34.9889 54.3982C35.5512 53.836 36.0216 53.3654 36.7442 52.5365C37.4667 51.7075 38.4416 50.5201 39.0626 49.7024C39.6837 48.8846 39.9511 48.4367 40.3049 47.0808C40.6588 45.7248 41.0992 43.461 41.3074 42.3291C41.5157 41.1972 41.4917 41.1972 38.9121 41.7314C36.3326 42.2656 31.1973 43.3342 28.4861 43.8765C25.775 44.4187 25.488 44.4346 25.3165 44.3748C25.1451 44.315 25.0893 44.1794 25.1052 44.02C25.1212 43.8605 25.2088 43.6771 25.3603 43.5216C25.5119 43.3661 25.7273 43.2385 26.2335 43.095C26.7399 42.9514 27.5373 42.792 30.1289 42.2657C32.7204 41.7394 37.106 40.8463 39.3307 40.352C41.5555 39.8576 41.6193 39.7619 41.8278 39.0599C42.0362 38.3578 42.3891 37.0496 42.745 35.6698C43.1009 34.29 43.4599 32.8386 43.7252 31.9399C43.9906 31.0412 44.1626 30.6949 44.2635 30.5219C44.3645 30.3487 44.3943 30.3487 44.4819 30.3887C44.5695 30.4285 44.7148 30.5081 44.8691 30.6729C45.0234 30.8378 45.1866 31.0875 45.2982 31.4337C45.41 31.7798 45.4701 32.2222 45.5059 32.4976C45.5418 32.7731 45.5533 32.8817 45.2823 34.0249C45.0112 35.1681 44.4575 37.3462 44.2045 38.4273C43.9517 39.5082 43.9995 39.4922 51.7306 37.8571C59.4618 36.2219 74.8762 32.9675 82.6352 31.3324C90.3943 29.6971 90.498 29.6812 90.7052 29.6812C90.9126 29.6812 91.2236 29.6971 91.403 29.769C91.5824 29.8407 91.6303 29.9683 91.6541 30.1237C91.6781 30.2792 91.6781 30.4627 91.6183 30.6062C91.5585 30.7496 91.4389 30.8533 91.2396 30.969C91.0403 31.0846 90.7611 31.2122 90.0993 31.4076C89.4375 31.6029 88.3929 31.8661 87.715 32.0296C87.0373 32.193 86.7262 32.2568 86.5268 32.2767C86.3275 32.2967 86.2398 32.2727 86.1282 32.217C86.0165 32.1611 85.881 32.0734 85.7534 32.0216C85.6259 31.9697 85.5062 31.9537 78.4933 33.4172C71.4806 34.8808 57.5746 37.8236 50.6215 39.3071C43.6686 40.7905 43.6686 40.8144 43.557 41.4324C43.4453 42.0504 43.2221 43.2625 41.5874 51.3482C39.9528 59.4337 36.9067 74.3928 35.3757 81.8884C33.8447 89.3839 33.8287 89.4159 33.8807 89.4217C33.9326 89.4275 34.0525 89.4071 34.1641 89.4488C34.2759 89.4905 34.3796 89.5941 34.4114 89.8036C34.4432 90.0131 34.4031 90.3285 34.2355 90.877C34.068 91.4253 33.7729 92.2067 33.4898 92.745C33.2068 93.2832 32.9356 93.5783 32.6764 93.7697C32.4174 93.961 32.1701 94.0488 31.8989 94.0607C31.6279 94.0726 31.3328 94.0088 31.1574 93.9252C30.982 93.8414 30.9262 93.7377 30.9142 93.5743C30.9023 93.4108 30.9342 93.1875 32.3295 86.3299C33.7249 79.4723 36.4837 65.9804 37.9175 59.0549C39.3513 52.1292 39.4603 51.77 39.3043 51.8876C39.1485 52.0051 38.728 52.5993 38.0714 53.3746C37.4148 54.1498 36.5221 55.1058 35.8557 55.8024C35.1894 56.4988 34.7496 56.9358 34.2212 57.3565C33.693 57.777 33.0763 58.1814 32.4752 58.4358C31.8741 58.6902 31.2886 58.7948 30.8721 58.8392C30.4557 58.8834 30.2086 58.8675 29.8935 58.8077C29.5785 58.7479 29.1959 58.6442 28.8848 58.4529C28.5739 58.2615 28.3346 57.9824 28.207 57.6954C28.0794 57.4083 28.0635 57.1132 28.0994 56.6667C28.1353 56.2202 28.223 55.622 28.2509 55.347C28.2789 55.0719 28.247 55.1197 27.8363 55.5184C27.4257 55.9172 26.6362 56.6666 25.9464 57.2488C25.2567 57.8309 24.6667 58.2455 24.1882 58.5406C23.7098 58.8356 23.343 59.011 22.9881 59.1227C22.6333 59.2343 22.2903 59.2822 21.9992 59.2583C21.7083 59.2343 21.4691 59.1386 21.2697 58.9512C21.0704 58.7639 20.9109 58.4847 20.8192 58.1379C20.7275 57.791 20.7035 57.3764 20.7913 56.4395C20.879 55.5025 21.0784 54.0433 21.2937 52.8113C21.5089 51.5792 21.7402 50.5746 21.8319 50.0642C21.9236 49.5539 21.8757 49.5379 21.796 49.4343C21.7163 49.3306 21.6046 49.1393 21.6564 48.9241Z" fill="black"/>
<path fill-rule="evenodd" clip-rule="evenodd" d="M47.7607 44.6105C47.3528 44.7357 46.811 45.0112 46.2977 45.4807C45.7843 45.9502 45.2994 46.6134 44.9501 47.2093C44.6008 47.8051 44.3873 48.3335 44.1635 49.0692C43.9398 49.8048 43.7057 50.7475 43.618 51.5188C43.5303 52.29 43.5889 52.8896 43.69 53.3474C43.7912 53.8053 43.9349 54.1212 44.0935 54.3886C44.2519 54.6559 44.4253 54.8744 44.6914 55.0212C44.9576 55.168 45.3167 55.2429 45.7572 55.2601C46.1977 55.2774 46.7197 55.2368 47.169 55.0596C47.6182 54.8824 47.9948 54.5685 48.3151 54.1706C48.6354 53.7725 48.8995 53.2904 49.0826 52.9034C49.2657 52.5166 49.3682 52.225 49.4726 52.0752C49.5773 51.9252 49.6841 51.9171 49.8475 51.8873C50.011 51.8573 50.2312 51.8056 50.4703 51.7249C50.7094 51.644 50.9676 51.534 51.3299 51.3415C51.6921 51.1489 52.1587 50.8739 52.5918 50.4974C53.025 50.121 53.425 49.6431 53.6359 49.4133C53.8469 49.1834 53.869 49.2013 53.6749 50.3174C53.4809 51.4333 53.0709 53.6475 52.868 54.7806C52.665 55.9134 52.6689 55.9653 52.7049 56.0271C52.7408 56.0888 52.8085 56.1606 52.8902 56.1985C52.972 56.2363 53.0677 56.2403 53.2946 56.1585C53.5216 56.0766 53.8798 55.9091 54.0925 55.798C54.3054 55.6869 54.3728 55.6324 54.4789 55.4582C54.585 55.284 54.7297 54.9899 55.2398 52.9514C55.7499 50.9128 56.6254 47.1295 57.0696 45.2113C57.5138 43.2931 57.5271 43.2401 57.6794 43.1962C57.8317 43.1524 58.1233 43.1178 58.4983 43.0568C58.8734 42.9958 59.3321 42.9084 59.5693 42.8901C59.8067 42.8718 59.8226 42.9228 59.8007 43.0392C59.7788 43.1557 59.719 43.3377 59.5123 44.0067C59.3057 44.6757 58.9524 45.8316 58.7391 46.8206C58.5258 47.8096 58.4526 48.6314 58.4416 49.1648C58.4307 49.698 58.4822 49.9428 58.5418 50.1277C58.6015 50.3126 58.6694 50.4377 58.7765 50.5592C58.8837 50.6805 59.0302 50.7981 59.2602 50.8743C59.4903 50.9503 59.8039 50.985 60.1433 50.9562C60.4828 50.9272 60.848 50.8348 61.1842 50.7209C61.5203 50.6068 61.8272 50.4712 62.1262 50.2699C62.4252 50.0685 62.7163 49.8013 63.0411 49.4385C63.3661 49.0757 63.725 48.6172 63.9143 48.388C64.1038 48.1587 64.1238 48.1587 64.1238 48.2046C64.1238 48.2504 64.1038 48.3422 64.1098 48.5576C64.1157 48.7728 64.1476 49.1116 64.2393 49.4127C64.3311 49.7137 64.4826 49.9769 64.672 50.1344C64.8614 50.2919 65.0886 50.3436 65.4295 50.3357C65.7704 50.3276 66.2249 50.26 66.685 50.0466C67.1452 49.833 67.6112 49.4739 68.1253 49.0209C68.6393 48.5679 69.2015 48.0212 69.4925 47.7459C69.7836 47.4704 69.8035 47.4665 69.8035 47.5203C69.8035 47.5741 69.7836 47.6858 69.7876 47.9011C69.7915 48.1164 69.8196 48.4352 69.8932 48.7183C69.967 49.0014 70.0867 49.2486 70.2501 49.4241C70.4136 49.5994 70.6209 49.7031 70.9243 49.7603C71.2276 49.8174 71.6271 49.8279 72.0557 49.7422C72.4842 49.6565 72.942 49.4745 73.4261 49.1742C73.9102 48.8739 74.4206 48.4553 74.9767 47.8852C75.533 47.3151 76.1349 46.5933 76.4639 46.1628C76.7928 45.7322 76.8486 45.5925 76.8824 45.5228C76.9164 45.453 76.9285 45.453 76.9344 45.5487C76.9404 45.6444 76.9404 45.8358 76.9383 46.0232C76.9363 46.2106 76.9324 46.394 76.9762 46.5615C77.02 46.7288 77.1118 46.8804 77.2014 46.9861C77.2911 47.0916 77.3789 47.1515 77.5004 47.2013C77.6221 47.2511 77.7777 47.2911 77.983 47.3011C78.1883 47.3109 78.4435 47.2911 78.7206 47.2432C78.9977 47.1954 79.2967 47.1196 79.6216 46.9342C79.9466 46.7488 80.2974 46.4537 80.6239 46.1459C80.9506 45.838 81.2531 45.5174 81.5272 45.1954C81.8012 44.8734 82.0469 44.55 82.3493 44.1289C82.6517 43.7077 83.0108 43.1889 83.4011 42.5759C83.7915 41.9628 84.2134 41.2556 84.4338 40.8808C84.6542 40.5058 84.6733 40.4631 84.7125 40.3598C84.7517 40.2564 84.8112 40.0924 84.778 40.0041C84.7448 39.9158 84.6189 39.9032 84.4322 39.9149C84.2457 39.9264 83.9986 39.962 83.8449 39.997C83.6914 40.0319 83.6315 40.0663 83.129 40.6722C82.6264 41.2779 81.6814 42.4551 80.9344 43.3144C80.1875 44.1734 79.6386 44.7145 79.3136 45.0358C78.9887 45.3572 78.8872 45.4591 78.8687 45.1211C78.8502 44.7829 78.9147 44.005 79.2522 42.9113C79.5897 41.8175 80.2006 40.4083 80.47 39.6039C80.7395 38.7995 80.6676 38.6 80.4762 38.4844C80.2849 38.3688 79.974 38.3369 79.4708 38.7328C78.9677 39.1286 78.2725 39.9521 77.9095 40.373C77.5468 40.794 77.5163 40.8125 77.446 40.7867C77.3758 40.7609 77.2658 40.6908 77.0851 40.61C76.9045 40.5291 76.6533 40.4374 76.416 40.3856C76.1788 40.3338 75.9556 40.3218 75.6919 40.3392C75.4284 40.3564 75.1246 40.403 74.8181 40.4941C74.5117 40.5851 74.2027 40.7207 73.8979 40.9636C73.593 41.2065 73.2924 41.5567 72.9732 41.8181C72.654 42.0794 72.3162 42.2521 72.1201 42.3571C71.9241 42.462 71.8696 42.4993 71.7376 42.6586C71.6056 42.8179 71.3961 43.0991 70.8711 43.7243C70.3462 44.3497 69.506 45.3189 68.7615 46.1238C68.017 46.9284 67.3684 47.5685 67.0105 47.8931C66.6525 48.2176 66.5854 48.2265 66.5429 48.1469C66.5004 48.0673 66.4825 47.8991 66.4738 47.7331C66.4651 47.567 66.4654 47.4031 66.4754 47.0989C66.4855 46.7946 66.505 46.3499 66.5925 45.7169C66.6801 45.0839 66.8356 44.2626 67.0076 43.354C67.1795 42.4452 67.3679 41.4489 67.4478 40.8595C67.5279 40.2702 67.4996 40.0875 67.4699 39.9421C67.4402 39.7964 67.4094 39.6879 67.3612 39.5954C67.313 39.503 67.2474 39.4267 67.1835 39.3706C67.1196 39.3146 67.0573 39.2787 66.987 39.2477C66.917 39.2166 66.8389 39.1905 66.7511 39.1795C66.6633 39.1685 66.5657 39.1727 66.4461 39.2019C66.3266 39.2311 66.1848 39.285 66.0743 39.3378C65.9637 39.3905 65.8842 39.4419 65.8171 39.7093C65.7499 39.9765 65.6949 40.4597 65.3221 41.6065C64.9493 42.753 64.2584 44.5633 63.6877 45.7403C63.117 46.9174 62.6667 47.4615 62.2659 47.9091C61.8652 48.3565 61.5142 48.7075 61.2613 48.9205C61.0084 49.1333 60.8537 49.2082 60.7623 49.2456C60.671 49.2831 60.6429 49.2831 60.5996 49.2487C60.5563 49.2145 60.4975 49.1458 60.5409 48.6252C60.5844 48.1045 60.73 47.1318 61.0003 45.9857C61.2707 44.8394 61.6657 43.5196 61.8576 42.8004C62.0496 42.0811 62.0385 41.9623 62.023 41.8511C62.0074 41.7397 61.9876 41.636 61.8062 41.5624C61.6247 41.4886 61.2818 41.4447 60.6817 41.4121C60.0816 41.3795 59.2243 41.3583 58.6037 41.1556C57.9834 40.9529 57.5999 40.5689 57.4046 40.3768C57.2094 40.1848 57.2024 40.1848 57.0222 40.242C56.8422 40.2991 56.489 40.4134 56.3087 40.4768C56.1284 40.5402 56.121 40.5527 56.0842 40.6228C56.0474 40.6928 55.9813 40.8205 55.8666 41.1594C55.7518 41.4983 55.5884 42.0485 55.4149 42.679C55.2415 43.3095 55.0582 44.0205 54.8966 44.6123C54.735 45.204 54.5951 45.6767 54.4875 45.9685C54.3802 46.2602 54.305 46.3711 54.198 46.5151C54.091 46.659 53.9521 46.8359 53.7245 47.1094C53.4968 47.3828 53.1806 47.7529 52.7972 48.1812C52.4138 48.6093 51.9633 49.0957 51.5202 49.5314C51.0771 49.967 50.6416 50.3521 50.3988 50.5207C50.1559 50.6892 50.1059 50.6413 50.1833 50.1645C50.2608 49.6877 50.4657 48.7817 50.5427 48.1104C50.6199 47.4391 50.569 47.0024 50.4686 46.5796C50.3683 46.1568 50.2183 45.7478 50.0194 45.4349C49.8205 45.122 49.5727 44.9051 49.3474 44.7712C49.1223 44.6374 48.9199 44.5864 48.6815 44.5485C48.4431 44.5104 48.1687 44.4852 47.7607 44.6105ZM46.2813 49.656C46.5889 50.0421 47.1498 50.8003 47.403 51.3281C47.6564 51.8558 47.6024 52.1533 47.537 52.3715C47.4717 52.5897 47.395 52.7283 47.2997 52.8852C47.2044 53.0419 47.0903 53.2168 46.9545 53.3653C46.8187 53.5136 46.661 53.6358 46.5198 53.7101C46.3787 53.7844 46.254 53.811 46.0923 53.7429C45.9307 53.6746 45.7324 53.5118 45.6269 53.1353C45.5213 52.7588 45.5084 52.1687 45.5177 51.6971C45.5273 51.2256 45.5589 50.8725 45.6204 50.4831C45.682 50.0936 45.7732 49.6676 45.846 49.4618C45.9191 49.2559 45.9736 49.2699 46.2813 49.656ZM48.5198 46.5221C48.3828 46.1969 48.264 46.2875 48.1085 46.4181C47.953 46.5486 47.761 46.7194 47.6693 47.1117C47.5776 47.504 47.5863 48.1179 47.7103 48.5686C47.8343 49.0193 48.0736 49.3066 48.2362 49.439C48.399 49.5713 48.4851 49.5486 48.5942 49.3378C48.7032 49.1271 48.8351 48.7283 48.8235 48.1585C48.812 47.5886 48.6569 46.8474 48.5198 46.5221ZM75.8802 42.2118C76.2794 42.0907 76.5387 42.0327 76.6613 42.0207C76.784 42.0086 76.7702 42.0425 76.5278 42.4311C76.2854 42.8196 75.8145 43.5627 75.3419 44.2932C74.8693 45.0236 74.3949 45.7412 73.9937 46.2853C73.5927 46.8293 73.2652 47.1998 73.0117 47.4697C72.7581 47.7397 72.5787 47.9091 72.4457 48.0133C72.3128 48.1176 72.2264 48.1567 72.1704 48.1622C72.1146 48.1677 72.0891 48.1396 72.0557 48.0486C72.0225 47.9575 71.9811 47.8034 71.9634 47.5602C71.9457 47.317 71.9517 46.9848 72.0344 46.6334C72.1171 46.2819 72.2765 45.9111 72.443 45.5787C72.6096 45.2461 72.7832 44.9518 72.9258 44.7156C73.0685 44.4794 73.18 44.3013 73.421 43.9752C73.6621 43.6491 74.0326 43.1752 74.4873 42.8461C74.942 42.517 75.4811 42.3329 75.8802 42.2118Z" fill="black"/>
<path fill-rule="evenodd" clip-rule="evenodd" d="M70.1969 26.9352C69.8866 26.9851 69.3675 27.1302 68.8358 27.4441C68.3041 27.7578 67.7596 28.2403 67.3825 28.5952C67.0054 28.9501 66.7955 29.1775 66.7151 29.3808C66.6349 29.5839 66.6842 29.7628 66.9326 29.8552C67.181 29.9475 67.6285 29.9534 68.1213 29.8424C68.6141 29.7313 69.1522 29.5033 69.4478 29.3729C69.7436 29.2426 69.797 29.2099 69.8956 29.0091C69.9942 28.8084 70.1383 28.4398 70.2816 28.0729C70.4249 27.706 70.5676 27.3408 70.5881 27.1357C70.6087 26.9305 70.5073 26.8851 70.1969 26.9352Z" fill="black"/>
</svg>
